<svg width="20" height="20" viewBox="0 0 20 20" fill="none" xmlns="http://www.w3.org/2000/svg">
<g id="Frame">
<path id="Vector" d="M17.6197 9.07173L12.8222 4.27423C12.6412 4.09945 12.3989 4.00273 12.1473 4.00492C11.8957 4.00711 11.655 4.10802 11.4772 4.28591C11.2993 4.46381 11.1983 4.70447 11.1962 4.95605C11.194 5.20762 11.2907 5.45 11.4655 5.63096L14.6251 8.79059H3.50833C3.25385 8.79059 3.0098 8.89168 2.82986 9.07162C2.64992 9.25156 2.54883 9.49562 2.54883 9.75009C2.54883 10.0046 2.64992 10.2486 2.82986 10.4286C3.0098 10.6085 3.25385 10.7096 3.50833 10.7096H14.6251L11.4655 13.8692C11.2907 14.0502 11.194 14.2926 11.1962 14.5441C11.1983 14.7957 11.2993 15.0364 11.4772 15.2143C11.655 15.3922 11.8957 15.4931 12.1473 15.4953C12.3989 15.4975 12.6412 15.4007 12.8222 15.226L17.6197 10.4285C17.7996 10.2485 17.9006 10.0045 17.9006 9.75009C17.9006 9.49567 17.7996 9.25166 17.6197 9.07173Z" fill="#008060"/>
</g>
</svg>
