<svg width="36" height="37" viewBox="0 0 36 37" fill="none" xmlns="http://www.w3.org/2000/svg">
<g id="&#240;&#159;&#166;&#134; icon &#34;cash dollar major&#34;">
<path id="Vector" d="M18 36.47C8.0748 36.47 0 28.3952 0 18.47C0 8.54477 8.0748 0.469971 18 0.469971C27.9252 0.469971 36 8.54477 36 18.47C36 28.3952 27.9252 36.47 18 36.47ZM19.8 9.46997C19.8 8.99258 19.6104 8.53474 19.2728 8.19718C18.9352 7.85961 18.4774 7.66997 18 7.66997C17.5226 7.66997 17.0648 7.85961 16.7272 8.19718C16.3896 8.53474 16.2 8.99258 16.2 9.46997V9.77597C15.1467 10.1484 14.2349 10.8383 13.5901 11.7506C12.9453 12.6629 12.5994 13.7528 12.6 14.87C12.6 16.6934 13.248 18.056 14.445 18.9542C15.417 19.6832 16.632 19.9838 17.4438 20.1872L17.5626 20.216C18.5526 20.4644 19.0656 20.6192 19.395 20.8658C19.548 20.981 19.8 21.1934 19.8 22.07C19.8001 22.5424 19.6144 22.9959 19.283 23.3327C18.9517 23.6694 18.5012 23.8624 18.0288 23.87C17.8297 23.8459 17.6337 23.8013 17.4438 23.7368C16.7726 23.5004 16.166 23.1102 15.6726 22.5974C15.3331 22.2695 14.8784 22.0881 14.4065 22.0922C13.9345 22.0963 13.4831 22.2856 13.1493 22.6193C12.8156 22.953 12.6263 23.4045 12.6222 23.8764C12.6181 24.3484 12.7995 24.8031 13.1274 25.1426C13.9898 26.0238 15.0402 26.6988 16.2 27.1172V27.47C16.2 27.9474 16.3896 28.4052 16.7272 28.7428C17.0648 29.0803 17.5226 29.27 18 29.27C18.4774 29.27 18.9352 29.0803 19.2728 28.7428C19.6104 28.4052 19.8 27.9474 19.8 27.47V27.164C20.8533 26.7916 21.7651 26.1017 22.4099 25.1893C23.0547 24.277 23.4006 23.1871 23.4 22.07C23.4 20.2466 22.752 18.884 21.555 17.9858C20.583 17.2568 19.368 16.9562 18.5562 16.7528L18.4374 16.724C17.4474 16.4756 16.9344 16.3208 16.605 16.0742C16.452 15.959 16.2 15.7466 16.2 14.87C16.1999 14.3975 16.3856 13.944 16.717 13.6073C17.0483 13.2705 17.4988 13.0775 17.9712 13.07C18.1703 13.0941 18.3663 13.1387 18.5562 13.2032C18.9972 13.349 19.647 13.6622 20.3274 14.3426C20.4934 14.5145 20.6921 14.6516 20.9117 14.746C21.1313 14.8403 21.3675 14.8899 21.6065 14.892C21.8455 14.8941 22.0825 14.8486 22.3037 14.758C22.5249 14.6675 22.7259 14.5339 22.8949 14.3649C23.0639 14.1959 23.1976 13.9949 23.2881 13.7737C23.3786 13.5525 23.4241 13.3155 23.4221 13.0764C23.42 12.8374 23.3703 12.6012 23.276 12.3816C23.1816 12.162 23.0445 11.9634 22.8726 11.7974C22.0102 10.9161 20.9599 10.2411 19.8 9.82277V9.46997Z" fill="#5C5F62"/>
</g>
</svg>
