<svg width="29" height="37" viewBox="0 0 29 37" fill="none" xmlns="http://www.w3.org/2000/svg">
<g id="&#240;&#159;&#166;&#134; icon &#34;checklist major&#34;">
<path id="Vector" d="M14.4 0.469971C13.4452 0.469971 12.5295 0.849255 11.8544 1.52439C11.1793 2.19952 10.8 3.11519 10.8 4.06997H2.7C1.98392 4.06997 1.29716 4.35443 0.790812 4.86078C0.284464 5.36713 0 6.05389 0 6.76997V33.77C0 34.4861 0.284464 35.1728 0.790812 35.6792C1.29716 36.1855 1.98392 36.47 2.7 36.47H26.1C26.8161 36.47 27.5028 36.1855 28.0092 35.6792C28.5155 35.1728 28.8 34.4861 28.8 33.77V6.76997C28.8 6.05389 28.5155 5.36713 28.0092 4.86078C27.5028 4.35443 26.8161 4.06997 26.1 4.06997H18C18 3.11519 17.6207 2.19952 16.9456 1.52439C16.2705 0.849255 15.3548 0.469971 14.4 0.469971ZM7.2 11.27V10.37C7.2 9.65389 7.48446 8.96713 7.99081 8.46078C8.49716 7.95443 9.18392 7.66997 9.9 7.66997H18.9C19.6161 7.66997 20.3028 7.95443 20.8092 8.46078C21.3155 8.96713 21.6 9.65389 21.6 10.37V11.27H7.2ZM21.0726 17.1974C21.41 17.5349 21.5996 17.9927 21.5996 18.47C21.5996 18.9473 21.41 19.405 21.0726 19.7426L13.8726 26.9426C13.5351 27.28 13.0773 27.4696 12.6 27.4696C12.1227 27.4696 11.665 27.28 11.3274 26.9426L7.7274 23.3426C7.55548 23.1765 7.41835 22.9779 7.32402 22.7583C7.22968 22.5387 7.18003 22.3025 7.17795 22.0635C7.17587 21.8245 7.22142 21.5875 7.31192 21.3663C7.40243 21.145 7.53608 20.9441 7.70509 20.7751C7.8741 20.6061 8.07507 20.4724 8.29628 20.3819C8.5175 20.2914 8.75452 20.2458 8.99352 20.2479C9.23253 20.25 9.46872 20.2997 9.68833 20.394C9.90794 20.4883 10.1066 20.6255 10.2726 20.7974L12.6 23.1248L18.5274 17.1974C18.865 16.8599 19.3227 16.6704 19.8 16.6704C20.2773 16.6704 20.7351 16.8599 21.0726 17.1974Z" fill="#5C5F62"/>
</g>
</svg>
