<svg width="16" height="17" viewBox="0 0 16 17" fill="none" xmlns="http://www.w3.org/2000/svg">
<g id="Frame" clip-path="url(#clip0_119_74)">
<path id="Vector" d="M11.0226 6.61504H9.7462L9.24487 15.0026C9.23671 15.1384 9.17693 15.266 9.07778 15.3592C8.97864 15.4524 8.84761 15.5042 8.71154 15.5039H8.67954C8.60946 15.4999 8.54087 15.482 8.47771 15.4513C8.41455 15.4207 8.35807 15.3779 8.31149 15.3254C8.26491 15.2728 8.22916 15.2116 8.20629 15.1453C8.18342 15.0789 8.17387 15.0087 8.1782 14.9386L8.71154 6.04971C8.7197 5.91388 8.77948 5.78631 8.87862 5.69311C8.97777 5.59991 9.1088 5.54813 9.24487 5.54838H10.3115L7.62354 2.1066L4.9782 5.54838H6.04487C6.18095 5.54813 6.31197 5.59991 6.41112 5.69311C6.51027 5.78631 6.57004 5.91388 6.5782 6.04971L7.11154 14.9386C7.11574 15.0086 7.10611 15.0788 7.08319 15.1451C7.06027 15.2114 7.02451 15.2726 6.97796 15.3251C6.9314 15.3776 6.87497 15.4204 6.81187 15.4511C6.74877 15.4818 6.68024 15.4997 6.6102 15.5039C6.54017 15.5081 6.46999 15.4985 6.40367 15.4756C6.33736 15.4527 6.2762 15.4169 6.22371 15.3703C6.17121 15.3238 6.1284 15.2674 6.09771 15.2043C6.06703 15.1412 6.04907 15.0726 6.04487 15.0026L5.54354 6.61504H4.26709C4.13679 6.61528 4.00892 6.57972 3.89745 6.51222C3.78599 6.44473 3.69521 6.3479 3.63503 6.23232C3.57486 6.11674 3.5476 5.98685 3.55623 5.85683C3.56486 5.7268 3.60906 5.60166 3.68398 5.49504L6.91243 1.28171C6.99484 1.1709 7.10212 1.081 7.22564 1.01924C7.34915 0.957482 7.48545 0.925597 7.62354 0.926155C7.76149 0.926429 7.89749 0.958679 8.02087 1.02037C8.14426 1.08206 8.25166 1.17152 8.33465 1.28171L11.588 5.45593C11.6692 5.56319 11.7183 5.69128 11.7296 5.82533C11.741 5.95939 11.714 6.0939 11.652 6.21327C11.5946 6.332 11.5054 6.43245 11.3943 6.5034C11.2832 6.57435 11.1545 6.613 11.0226 6.61504ZM11.9898 8.39282C11.8502 8.37025 11.7074 8.40402 11.5927 8.48669C11.4781 8.56936 11.4009 8.69418 11.3782 8.83371L10.3115 14.8782C10.2983 14.9483 10.2993 15.0204 10.3144 15.0902C10.3295 15.1599 10.3585 15.2259 10.3996 15.2843C10.4407 15.3427 10.4931 15.3922 10.5537 15.4299C10.6144 15.4676 10.6819 15.4928 10.7524 15.5039H10.8449C10.9717 15.5058 11.095 15.4625 11.1927 15.3817C11.2905 15.3009 11.3562 15.1879 11.3782 15.063L12.4449 9.0186C12.4581 8.94845 12.4571 8.87636 12.442 8.80659C12.4269 8.73683 12.3979 8.67081 12.3568 8.61245C12.3157 8.5541 12.2633 8.50459 12.2027 8.46686C12.1421 8.42913 12.0745 8.40396 12.004 8.39282H11.9898ZM4.26709 10.615C4.25565 10.545 4.23053 10.4779 4.19316 10.4176C4.15579 10.3572 4.1069 10.3049 4.04929 10.2634C3.99167 10.222 3.92646 10.1923 3.85738 10.1761C3.78829 10.1598 3.71669 10.1574 3.64665 10.1688C3.57661 10.1803 3.50951 10.2054 3.44918 10.2428C3.38885 10.2801 3.33648 10.329 3.29504 10.3866C3.2536 10.4442 3.22392 10.5095 3.20769 10.5785C3.19145 10.6476 3.18899 10.7192 3.20043 10.7893L3.91154 15.0559C3.93198 15.1821 3.99708 15.2968 4.09497 15.379C4.19286 15.4612 4.31704 15.5056 4.44487 15.5039H4.53376C4.60423 15.4932 4.67183 15.4684 4.73257 15.4311C4.79331 15.3938 4.84595 15.3447 4.88739 15.2867C4.92882 15.2287 4.95821 15.1629 4.9738 15.0934C4.9894 15.0238 4.9909 14.9519 4.9782 14.8817L4.26709 10.615Z" fill="#008060"/>
</g>
<defs>
<clipPath id="clip0_119_74">
<rect width="16" height="16" fill="white" transform="translate(0 0.215088)"/>
</clipPath>
</defs>
</svg>
