<svg width="16" height="17" viewBox="0 0 16 17" fill="none" xmlns="http://www.w3.org/2000/svg">
<g id="Frame">
<path id="Vector" d="M12.0887 12.9292V10.9061H13.9909L12.0887 12.9292ZM8.35538 13.0395V4.01903L8.94205 3.78436C9.51449 3.5568 10.1189 3.43947 10.734 3.43947H14.222V9.83947H11.5554C11.2603 9.83947 11.022 10.0777 11.022 10.3728V13.0395H8.35538ZM7.28872 13.0395H1.7776V3.43947H4.91005C5.52516 3.43947 6.1296 3.5568 6.70205 3.78436L7.28872 4.01903V13.0395ZM14.222 2.3728H10.734C9.98383 2.3728 9.24072 2.51502 8.54738 2.79591L7.82205 3.08391L7.09671 2.79591C6.40338 2.51502 5.66027 2.3728 4.91005 2.3728H1.7776C1.18738 2.3728 0.710938 2.84925 0.710938 3.43947V13.0395C0.710938 13.6297 1.18738 14.1061 1.7776 14.1061H7.28872V14.2839C7.28872 14.579 7.52694 14.8172 7.82205 14.8172C8.11716 14.8172 8.35538 14.579 8.35538 14.2839V14.1061H11.9856C12.2772 14.1061 12.558 13.9852 12.7607 13.7719L15.0007 11.3932C15.1856 11.1941 15.2887 10.9346 15.2887 10.6608V3.43947C15.2887 2.84925 14.8123 2.3728 14.222 2.3728Z" fill="#008060"/>
</g>
</svg>
