<svg width="40" height="39" viewBox="0 0 40 39" fill="none" xmlns="http://www.w3.org/2000/svg">
<g id="&#240;&#159;&#166;&#134; icon &#34;legal major&#34;">
<path id="Vector" d="M14 8.46997H24V12.47H14V8.46997ZM24 16.47H14V20.47H24V16.47Z" fill="#5C5F62"/>
<path id="Vector_2" fill-rule="evenodd" clip-rule="evenodd" d="M32 32.47C32 34.0613 31.3679 35.5874 30.2426 36.7126C29.1174 37.8378 27.5913 38.47 26 38.47H6C4.4087 38.47 2.88258 37.8378 1.75736 36.7126C0.632141 35.5874 0 34.0613 0 32.47L0 29.47C0 28.6743 0.31607 27.9113 0.87868 27.3486C1.44129 26.786 2.20435 26.47 3 26.47H6V6.46997C6 4.87867 6.63214 3.35255 7.75736 2.22733C8.88258 1.10211 10.4087 0.469971 12 0.469971H34C34.7879 0.469971 35.5681 0.625165 36.2961 0.926693C37.0241 1.22822 37.6855 1.67018 38.2426 2.22733C38.7998 2.78448 39.2417 3.44592 39.5433 4.17387C39.8448 4.90182 40 5.68204 40 6.46997C40 7.2579 39.8448 8.03812 39.5433 8.76607C39.2417 9.49403 38.7998 10.1555 38.2426 10.7126C37.6855 11.2698 37.0241 11.7117 36.2961 12.0132C35.5681 12.3148 34.7879 12.47 34 12.47H32V32.47ZM10 6.46997C10 5.93954 10.2107 5.43083 10.5858 5.05576C10.9609 4.68068 11.4696 4.46997 12 4.46997H28.34C28.12 5.09597 28 5.76997 28 6.46997V32.47C28 33.0004 27.7893 33.5091 27.4142 33.8842C27.0391 34.2593 26.5304 34.47 26 34.47C25.4696 34.47 24.9609 34.2593 24.5858 33.8842C24.2107 33.5091 24 33.0004 24 32.47V26.47H10V6.46997ZM34 4.46997C33.4696 4.46997 32.9609 4.68068 32.5858 5.05576C32.2107 5.43083 32 5.93954 32 6.46997V8.46997H34C34.5304 8.46997 35.0391 8.25926 35.4142 7.88418C35.7893 7.50911 36 7.0004 36 6.46997C36 5.93954 35.7893 5.43083 35.4142 5.05576C35.0391 4.68068 34.5304 4.46997 34 4.46997ZM20 32.47C20 33.17 20.12 33.844 20.34 34.47H6C5.46957 34.47 4.96086 34.2593 4.58579 33.8842C4.21071 33.5091 4 33.0004 4 32.47V30.47H20V32.47Z" fill="#5C5F62"/>
</g>
</svg>
