<svg width="36" height="39" viewBox="0 0 36 39" fill="none" xmlns="http://www.w3.org/2000/svg">
<g id="&#240;&#159;&#166;&#134; icon &#34;mark paid minor&#34;">
<path id="Vector" d="M28.3891 10.0782C28.864 10.5533 29.1308 11.1975 29.1308 11.8692C29.1308 12.5409 28.864 13.1851 28.3891 13.6601L16.9899 25.0593C16.5149 25.5342 15.8707 25.801 15.199 25.801C14.5272 25.801 13.883 25.5342 13.408 25.0593L7.07511 18.7264C6.61368 18.2487 6.35835 17.6088 6.36412 16.9446C6.36989 16.2804 6.6363 15.6451 7.10597 15.1754C7.57564 14.7057 8.21099 14.4393 8.87517 14.4336C9.53936 14.4278 10.1792 14.6831 10.657 15.1446L15.199 19.6865L24.8072 10.0782C25.2823 9.60335 25.9265 9.33657 26.5982 9.33657C27.2699 9.33657 27.9141 9.60335 28.3891 10.0782ZM3.79974 0.469971C2.79198 0.469971 1.82551 0.870299 1.11292 1.58289C0.400328 2.29548 0 3.26196 0 4.26971V35.9342C0.00132764 36.3316 0.0959735 36.7232 0.276315 37.0774C0.456657 37.4316 0.717654 37.7385 1.03829 37.9734C1.35892 38.2082 1.73023 38.3645 2.12231 38.4296C2.5144 38.4948 2.91629 38.4669 3.29564 38.3483C3.74907 38.2064 4.09358 37.8594 4.40263 37.4972L7.24483 34.1483L10.6621 37.6922C11.1282 38.176 11.7691 38.4547 12.4403 38.4674C12.7741 38.4791 13.1068 38.422 13.4175 38.2995C13.7283 38.177 14.0105 37.9919 14.2465 37.7555L17.7017 34.4194L21.0075 37.7251C21.2422 37.9612 21.5212 38.1485 21.8286 38.2763C22.136 38.4042 22.4655 38.47 22.7984 38.47C23.1313 38.47 23.4609 38.4042 23.7683 38.2763C24.0756 38.1485 24.3547 37.9612 24.5894 37.7251L28.1865 34.1281L31.0692 37.5073C31.3732 37.8619 31.7126 38.2039 32.1584 38.3458C32.5382 38.4674 32.9414 38.4976 33.335 38.434C33.7287 38.3704 34.1018 38.2148 34.424 37.9798C34.7461 37.7448 35.0083 37.437 35.189 37.0815C35.3698 36.7261 35.4641 36.333 35.4642 35.9342V4.26971C35.4642 3.26196 35.0639 2.29548 34.3513 1.58289C33.6387 0.870299 32.6722 0.469971 31.6645 0.469971H3.79974Z" fill="#5C5F62"/>
</g>
</svg>
