<svg width="38" height="39" viewBox="0 0 38 39" fill="none" xmlns="http://www.w3.org/2000/svg">
<g id="&#240;&#159;&#166;&#134; icon &#34;secure major&#34;">
<path id="Vector" fill-rule="evenodd" clip-rule="evenodd" d="M17.3439 0.912194C12.8408 3.53996 7.14062 5.33931 2.83701 5.93973C1.27707 6.15823 -0.00356751 7.44077 0.000232591 9.01781L0.00213264 9.96213C-0.0548689 21.4441 0.908457 31.4935 17.9804 38.2786C18.6288 38.5338 19.3498 38.5338 19.9983 38.2786C37.0854 31.4935 38.0544 21.4441 37.9974 9.96213V9.01021C37.9955 7.43697 36.7168 6.14113 35.1626 5.89793C31.0813 5.25761 25.1284 3.47726 20.6272 0.904593C20.1271 0.618507 19.5607 0.468646 18.9845 0.46998C18.4084 0.471313 17.8427 0.623795 17.3439 0.912194ZM26.0404 17.0208C26.3969 16.6645 26.5973 16.1812 26.5975 15.6772C26.5977 15.1732 26.3976 14.6897 26.0414 14.3332C25.6851 13.9767 25.2018 13.7763 24.6978 13.7761C24.1937 13.7759 23.7103 13.976 23.3538 14.3322L17.0969 20.591L14.6401 18.1343C14.465 17.9527 14.2554 17.8078 14.0237 17.708C13.7919 17.6083 13.5426 17.5557 13.2904 17.5533C13.0381 17.551 12.7879 17.5989 12.5543 17.6942C12.3207 17.7896 12.1085 17.9305 11.9299 18.1088C11.7514 18.2871 11.6102 18.4991 11.5145 18.7326C11.4188 18.966 11.3705 19.2162 11.3725 19.4684C11.3745 19.7207 11.4268 19.9701 11.5262 20.202C11.6256 20.4339 11.7702 20.6436 11.9515 20.819L15.7516 24.621C16.108 24.9772 16.5912 25.1773 17.095 25.1773C17.5988 25.1773 18.082 24.9772 18.4383 24.621L26.0385 17.0189L26.0404 17.0208Z" fill="#5C5F62"/>
</g>
</svg>
