<svg width="38" height="39" viewBox="0 0 38 39" fill="none" xmlns="http://www.w3.org/2000/svg">
<g id="&#240;&#159;&#166;&#134; icon &#34;store minor&#34;">
<g id="Group">
<path id="Vector" d="M1.3153 3.14826L0.0291631 10.8069C-0.0221131 11.113 -0.00563066 11.4265 0.0774943 11.7256C0.160596 12.0247 0.308368 12.3023 0.510481 12.5391C0.712617 12.7758 0.964272 12.9661 1.24797 13.0966C1.53166 13.2271 1.8406 13.2948 2.15332 13.295H4.07711C4.67754 13.2949 5.26611 13.1289 5.77676 12.8156C6.28743 12.5022 6.69999 12.0539 6.9682 11.5208L8.22847 9.01997L9.48874 11.5208C9.75692 12.0539 10.1695 12.5022 10.6802 12.8156C11.1908 13.1289 11.7794 13.2949 12.3798 13.295H14.8486C15.4491 13.2949 16.0376 13.1289 16.5483 12.8156C17.059 12.5022 17.4715 12.0539 17.7397 11.5208L19 9.01997L20.2602 11.5208C20.5285 12.0539 20.9411 12.5022 21.4517 12.8156C21.9623 13.1289 22.5509 13.2949 23.1513 13.295H25.6201C26.2207 13.2949 26.8092 13.1289 27.3199 12.8156C27.8305 12.5022 28.243 12.0539 28.5112 11.5208L29.7716 9.01997L31.0317 11.5208C31.2999 12.0539 31.7127 12.5022 32.2233 12.8156C32.7339 13.1289 33.3224 13.2949 33.9228 13.295H35.8466C36.1594 13.2948 36.4684 13.2271 36.7519 13.0966C37.0357 12.9661 37.2875 12.7758 37.4896 12.5391C37.6917 12.3023 37.8394 12.0247 37.9226 11.7256C38.0057 11.4265 38.0221 11.113 37.9708 10.8069L36.6847 3.14826C36.5588 2.39963 36.1691 1.7196 35.5853 1.22919C35.0016 0.73875 34.2613 0.469733 33.4963 0.469971H4.50366C3.7387 0.469733 2.99846 0.73875 2.41464 1.22919C1.83079 1.7196 1.44124 2.39963 1.3153 3.14826Z" fill="#5C5F62"/>
<path id="Vector_2" d="M35.625 35.2637V17.095H2.375V35.2637C2.375 36.114 2.71097 36.9295 3.30902 37.5309C3.90707 38.1322 4.71817 38.47 5.56394 38.47H11.9135V24.22H26.0865V38.47H32.4361C33.2818 38.47 34.0929 38.1322 34.6909 37.5309C35.2889 36.9295 35.625 36.114 35.625 35.2637Z" fill="#5C5F62"/>
</g>
</g>
</svg>
